<svg width="404" height="281" viewBox="0 0 404 281" fill="none" xmlns="http://www.w3.org/2000/svg">
<path opacity="0.1" d="M374.083 9.85002C376.761 9.85002 378.933 7.67861 378.933 5.00002C378.933 2.32144 376.761 0.150024 374.083 0.150024C371.404 0.150024 369.233 2.32144 369.233 5.00002C369.233 7.67861 371.404 9.85002 374.083 9.85002Z" fill="#6C63FF"/>
<path opacity="0.1" d="M278.843 280.985C297.647 280.985 312.89 279.465 312.89 277.59C312.89 275.715 297.647 274.195 278.843 274.195C260.039 274.195 244.796 275.715 244.796 277.59C244.796 279.465 260.039 280.985 278.843 280.985Z" fill="#6C63FF"/>
<path d="M86.4909 155.718L86.3419 163.777L85.1419 229.134L74.8979 253.122L39.6079 253.522V159.433L76.4439 156.515L86.4909 155.718Z" fill="#5F5D7E"/>
<path opacity="0.1" d="M86.4909 155.718L86.3419 163.777L85.1419 229.134L74.8979 253.122L39.6079 253.522V159.433L76.4439 156.515L86.4909 155.718Z" fill="black"/>
<path d="M86.4908 155.718L86.3418 163.777L85.1418 229.134L74.9038 253.118L77.6038 163.931L77.5948 163.875L76.4438 156.508L86.4908 155.718Z" fill="#5F5D7E"/>
<path opacity="0.1" d="M76.4439 156.514L86.4909 155.714L86.3419 163.773L77.5919 163.873L39.6079 164.302V159.432L76.4439 156.514Z" fill="black"/>
<path d="M403.761 159.432V252.984H395.54L362.67 229.006V156.792L392.041 154.031L393.841 154.86L395.541 155.644L403.761 159.432Z" fill="#5F5D7E"/>
<path opacity="0.1" d="M403.761 154.861H395.544V252.984H403.761V154.861Z" fill="black"/>
<path opacity="0.1" d="M403.761 154.861V160.24L395.544 160.333L362.669 160.699V156.792L392.04 154.031L393.84 154.86L395.54 155.644V154.86L403.761 154.861Z" fill="black"/>
<path d="M403.761 151.81V159.432L0 163.934V154.234L37.992 146.554L368.6 144.129L403.761 151.81Z" fill="#5F5D7E"/>
<path opacity="0.1" d="M403.761 151.81V159.432L0 163.936V154.236L403.761 151.81Z" fill="black"/>
<path d="M266.329 37.5651H170.543C157.94 37.5651 147.723 47.7819 147.723 60.3851V124.553C147.723 137.156 157.94 147.373 170.543 147.373H266.329C278.932 147.373 289.149 137.156 289.149 124.553V60.3851C289.149 47.7819 278.932 37.5651 266.329 37.5651Z" fill="#474157"/>
<path d="M277.977 47.47H159.104V137.045H277.977V47.47Z" fill="#EDEDF4"/>
<path d="M154.464 94.204C155.54 94.204 156.412 93.3318 156.412 92.256C156.412 91.1801 155.54 90.308 154.464 90.308C153.388 90.308 152.516 91.1801 152.516 92.256C152.516 93.3318 153.388 94.204 154.464 94.204Z" fill="#E6E8EC"/>
<path d="M283.244 95.6791C285.019 95.6791 286.457 94.2405 286.457 92.4661C286.457 90.6916 285.019 89.2531 283.244 89.2531C281.47 89.2531 280.031 90.6916 280.031 92.4661C280.031 94.2405 281.47 95.6791 283.244 95.6791Z" fill="#E6E8EC"/>
<path d="M231.357 92.603L216.156 83.3681C215.84 83.1929 215.484 83.1032 215.123 83.1076C214.762 83.1121 214.409 83.2106 214.097 83.3934C213.786 83.5763 213.528 83.8372 213.348 84.1503C213.169 84.4635 213.074 84.818 213.073 85.1791V103.148C213.074 103.509 213.169 103.864 213.348 104.177C213.528 104.49 213.786 104.751 214.097 104.934C214.409 105.117 214.762 105.215 215.123 105.219C215.484 105.224 215.84 105.134 216.156 104.959L231.356 96.237C231.679 96.0572 231.949 95.7942 232.137 95.4751C232.324 95.1561 232.423 94.7927 232.423 94.4226C232.423 94.0524 232.324 93.689 232.137 93.37C231.949 93.0509 231.679 92.7879 231.356 92.608L231.357 92.603ZM242.787 94.159C242.787 89.9224 241.531 85.7809 239.177 82.2582C236.823 78.7355 233.478 75.9899 229.563 74.3686C225.649 72.7473 221.342 72.3231 217.187 73.1496C213.032 73.9762 209.215 76.0163 206.219 79.0121C203.223 82.0079 201.183 85.8248 200.356 89.98C199.53 94.1353 199.954 98.4423 201.575 102.357C203.197 106.271 205.942 109.616 209.465 111.97C212.988 114.324 217.129 115.58 221.366 115.58C227.047 115.58 232.496 113.323 236.513 109.306C240.53 105.289 242.787 99.8402 242.787 94.159V94.159ZM204.093 94.159C204.093 90.7426 205.106 87.4028 207.004 84.5621C208.902 81.7215 211.6 79.5074 214.756 78.2C217.913 76.8925 221.386 76.5504 224.737 77.217C228.088 77.8835 231.166 79.5287 233.581 81.9445C235.997 84.3603 237.642 87.4382 238.309 90.7891C238.975 94.1399 238.633 97.6131 237.326 100.77C236.019 103.926 233.804 106.624 230.964 108.522C228.123 110.42 224.783 111.433 221.367 111.433C216.786 111.433 212.392 109.613 209.152 106.374C205.913 103.134 204.093 98.7404 204.093 94.159Z" fill="#474157"/>
<path d="M324.902 164.541C324.821 164.047 324.667 163.567 324.445 163.118C324.751 162.071 324.95 161.428 324.95 161.428C324.945 161.293 324.929 161.16 324.901 161.028C324.661 159.547 323.892 158.202 322.736 157.245C321.58 156.288 320.116 155.782 318.616 155.822C316.191 155.866 311.591 156.028 306.49 156.602C306.781 154.562 307.129 152.119 307.49 149.602L308.157 149.675C308.316 149.671 308.476 149.679 308.634 149.699H308.848C309.379 149.732 309.905 149.571 310.327 149.246C310.43 149.145 310.507 149.021 310.551 148.883C310.594 148.746 310.603 148.599 310.576 148.458C310.549 148.316 310.488 148.183 310.397 148.071C310.306 147.959 310.189 147.871 310.056 147.815C310.652 147.875 311.254 147.785 311.807 147.554C312.36 147.322 312.846 146.956 313.222 146.489C313.565 146.009 313.749 145.434 313.749 144.844C313.749 144.254 313.565 143.679 313.222 143.199C312.367 141.986 310.562 141.178 310.466 139.752C310.542 138.928 310.86 138.145 311.379 137.5C312.403 135.714 312.813 133.641 312.545 131.599C312.277 129.558 311.346 127.661 309.895 126.2C309.326 125.635 308.727 125.1 308.1 124.6C307.211 121.335 306.282 118.416 306.007 118.324C305.414 117.893 304.892 117.373 304.459 116.781C304.512 116.225 304.503 115.666 304.431 115.112C304.003 112.283 301.198 110.262 299.654 107.765C298.22 105.208 297.716 102.233 298.228 99.347C298.759 96.4888 299.496 93.6727 300.434 90.921C301.214 88.9017 301.364 86.6935 300.866 84.587C300.277 83.1118 299.39 81.7745 298.259 80.659C295.688 77.6399 292.538 75.1663 288.996 73.384C286.434 72.1763 283.628 71.5761 280.796 71.63H280.771L280.327 71.654L280.012 71.675L279.697 71.707L279.361 71.739C279.018 71.783 278.678 71.839 278.339 71.905C275.876 71.3577 273.362 71.0761 270.839 71.065H270.512C269.764 71.021 269.019 71.1969 268.37 71.571C267.47 72.197 267.359 73.321 267.089 74.299C266.603 75.9359 265.577 77.3604 264.179 78.341C263.213 79.036 262.079 79.554 261.156 80.281C260.679 80.5882 260.297 81.021 260.051 81.5316C259.805 82.0423 259.704 82.6109 259.761 83.175C259.92 83.6396 260.186 84.0606 260.537 84.4045C260.888 84.7484 261.314 85.0057 261.782 85.156C261.66 85.301 261.538 85.443 261.43 85.592C261.62 85.669 261.83 85.737 262.008 85.792C263.221 86.152 264.526 86.192 265.754 86.525C266.092 86.6157 266.424 86.7279 266.748 86.861C265.655 88.9168 265.085 91.2098 265.087 93.538C265.092 96.1235 265.793 98.6599 267.117 100.88C268.442 103.101 270.34 104.923 272.613 106.156V106.556C272.735 110.775 272.419 115.908 270.261 116.778C268.103 117.648 266.037 118.629 264.766 119.264L264.366 119.478C264.03 119.324 263.696 119.163 263.366 118.99C263.366 118.99 261.648 118.79 261.947 120.098C261.947 120.098 256.754 119.29 253.904 121.508C250.882 123.968 248.059 126.663 245.461 129.567C244.544 130.776 237.451 133.418 237.451 133.418C238.115 132.402 238.57 131.264 238.788 130.07C239.006 128.876 238.983 127.651 238.72 126.466C238.72 126.466 237.653 121.85 238.162 119.994C238.671 118.138 239.994 111.272 239.994 111.272C239.994 111.272 240.18 104.021 236.223 100.695C232.266 97.369 229.514 94.632 231.042 97.866C231.71 99.3484 232.457 100.793 233.281 102.195C233.281 102.195 223.82 104.442 227.176 107.95C230.532 111.458 231.45 111.462 231.45 111.462C231.45 111.462 230.33 120.123 230.124 121.736C229.918 123.349 228.103 135.636 228.103 135.636C228.103 135.636 228.003 141.48 229.02 142.385C229.251 143.483 229.874 144.458 230.774 145.128C231.674 145.798 232.787 146.116 233.905 146.023C233.905 146.023 241.94 145.823 244.179 144.915C246.418 144.007 254.146 139.176 254.963 139.475C255.022 139.499 255.076 139.534 255.121 139.58C255.165 139.618 255.205 139.658 255.243 139.702C254.435 141.492 252.519 147.571 253.336 150.558C253.336 150.558 252.624 159.017 256.897 161.737C256.897 161.737 263.097 172.213 260.761 177.856C260.575 178.313 260.409 178.733 260.255 179.142C256.703 176.195 251.282 173.483 243.006 171.984C242.161 171.83 241.321 171.645 240.488 171.442C238.136 170.872 231.666 170.35 228.588 180.581C227.87 182.959 226.956 185.274 225.856 187.501C224.32 190.429 223.437 193.656 223.27 196.958C223.202 201.842 225.727 206.694 234.894 208.473C234.879 212.239 235.474 215.983 236.656 219.559C239.198 225.909 243.268 236.178 243.268 236.178C243.268 236.178 248.152 246.654 248.458 250.878C248.749 253.832 248.845 256.803 248.745 259.77C248.74 259.919 248.726 260.067 248.705 260.214C248.286 260.666 247.829 261.081 247.339 261.455C246.627 261.855 244.286 264.377 244.286 264.979C244.291 265.556 244.342 266.132 244.44 266.701C243.952 267.061 243.547 267.521 243.252 268.051C242.957 268.581 242.779 269.168 242.73 269.772C242.73 275.236 258.238 279.663 277.367 279.663C296.496 279.663 312 275.217 312 269.772C312 264.785 299.066 260.663 282.261 259.984C285.761 258.584 288.877 257.118 290.166 255.942C290.443 255.726 290.654 255.438 290.777 255.109L287.51 247.559C287.51 247.559 287.256 247.615 286.88 247.725L286.654 247.386C285.207 245.186 282.423 240.792 282.423 239.602C282.423 239.161 281.69 236.344 280.623 232.484V220.11C291.237 221.727 304.913 219.528 304.913 219.528L304.974 219.496H305.24V219.351C307.079 218.333 316.277 212.945 319.006 205.797C319.814 203.711 318.806 200.725 316.806 197.531C318.206 194.059 321.656 185.09 321.312 181.514C321.312 181.324 321.288 181.114 321.288 180.903C321.32 180.537 321.334 180.17 321.328 179.803C321.728 174.552 324.966 164.95 324.966 164.95C324.966 164.95 324.942 164.784 324.902 164.541ZM256.194 141.197C256.927 142.49 257.718 144.144 258.026 144.814C258.026 144.814 256.951 142.833 256.211 141.197H256.194ZM256.962 254.404L256.885 254.432V254.032C256.841 252.978 256.867 251.922 256.962 250.872C256.973 250.306 256.854 249.744 256.614 249.231C255.368 246.101 254.535 242.823 254.136 239.478C253.721 236.716 253.544 233.924 253.606 231.132C254.051 224.99 254.112 218.826 253.788 212.677L260.045 214.084L267.32 228.917C267.32 228.917 272.001 236.159 273.451 241.874V247.602C273.027 249.307 272.285 250.917 271.264 252.347C270.298 253.668 269.357 255.007 268.484 256.389C268.218 256.818 267.922 257.258 267.629 257.67C267.529 257.67 262.751 257.948 261.939 258.846C261.243 259.469 260.719 260.261 260.419 261.146L260.212 261.178C259.313 258.841 258.233 256.577 256.982 254.408L256.962 254.404Z" fill="url(#paint0_linear_373_629)"/>
<path opacity="0.1" d="M287.738 249.21L286.121 254.461L279.25 260.423L269.15 263.323C269.15 263.323 264.401 260.723 266.018 260.223C266.631 259.919 267.156 259.463 267.542 258.897C266.977 260.958 271.474 258.302 271.474 258.302C271.474 258.302 283.094 250.017 284.307 249.107C285.102 248.579 285.974 248.18 286.893 247.922C287.395 248.712 287.738 249.21 287.738 249.21Z" fill="black"/>
<path d="M287.739 249.209L286.118 254.455L279.247 260.416L269.147 263.316C269.147 263.316 264.398 260.716 266.015 260.216C266.629 259.912 267.154 259.456 267.539 258.89C268.027 258.266 268.477 257.613 268.888 256.936C269.753 255.545 270.688 254.204 271.649 252.894C273.048 250.904 273.925 248.595 274.2 246.178C274.907 240.621 267.728 229.405 267.728 229.405L254.698 202.645L272.885 204.867C272.885 204.867 282.685 238.514 282.685 240.13C282.685 241.343 285.45 245.73 286.885 247.939C287.395 248.712 287.739 249.209 287.739 249.209Z" fill="#FDC2CC"/>
<path d="M277.649 280.319C296.649 280.319 312.051 275.876 312.051 270.396C312.051 264.916 296.649 260.473 277.649 260.473C258.649 260.473 243.247 264.916 243.247 270.396C243.247 275.876 258.649 280.319 277.649 280.319Z" fill="#5F5D7E"/>
<path d="M290.971 255.677C290.847 256.006 290.635 256.295 290.36 256.513C287.86 258.805 278.521 262.213 272.75 264.063C271.237 264.591 269.695 265.03 268.131 265.377C265.872 265.23 263.685 264.526 261.765 263.328C259.744 262.087 261.565 260.328 262.375 259.42C263.185 258.512 268.034 258.24 268.034 258.24C265.714 262.107 271.465 258.713 271.465 258.713C271.465 258.713 283.085 250.428 284.298 249.518C285.356 248.858 286.517 248.38 287.733 248.104L290.971 255.677Z" fill="white"/>
<path opacity="0.1" d="M290.365 256.52C287.865 258.812 278.528 262.22 272.755 264.07C277.985 259.64 286.755 257.325 290.365 256.52Z" fill="black"/>
<path opacity="0.1" d="M277.65 269.183C281.451 269.183 284.533 268.295 284.533 267.199C284.533 266.103 281.451 265.215 277.65 265.215C273.849 265.215 270.767 266.103 270.767 267.199C270.767 268.295 273.849 269.183 277.65 269.183Z" fill="black"/>
<path d="M280.895 214.86H273.822V267.199H280.895V214.86Z" fill="#5F5D7E"/>
<path opacity="0.1" d="M280.895 217.455V223.518C278.441 222.468 276.076 221.223 273.822 219.794V214.855H275.297L280.895 217.455Z" fill="black"/>
<path d="M264.232 192.072C264.232 192.072 287.584 186.062 293.397 181.563C299.21 177.064 322.032 198.231 319.017 206.217C316.002 214.203 305.024 219.987 305.024 219.987C305.024 219.987 274.667 224.926 269.497 214.624C264.327 204.322 264.232 192.072 264.232 192.072Z" fill="#474157"/>
<path opacity="0.1" d="M264.232 192.072C264.232 192.072 287.584 186.062 293.397 181.563C299.21 177.064 322.032 198.231 319.017 206.217C316.002 214.203 305.024 219.987 305.024 219.987C305.024 219.987 274.667 224.926 269.497 214.624C264.327 204.322 264.232 192.072 264.232 192.072Z" fill="black"/>
<path d="M262.211 189.647C262.211 189.647 285.563 183.637 291.376 179.138C297.189 174.639 320.011 195.806 316.996 203.792C313.981 211.778 303.003 217.562 303.003 217.562C303.003 217.562 272.646 222.501 267.476 212.199C262.306 201.897 262.211 189.647 262.211 189.647Z" fill="#474157"/>
<path d="M240.551 134.535L238.025 133.618C238.687 132.598 239.14 131.456 239.357 130.259C239.574 129.063 239.551 127.835 239.29 126.647C239.29 126.647 238.228 122.015 238.732 120.14C239.236 118.265 240.55 111.39 240.55 111.39C240.55 111.39 240.736 104.115 236.804 100.781C232.872 97.447 230.143 94.718 231.659 97.952C232.321 99.4395 233.062 100.89 233.881 102.297C233.881 102.297 224.481 104.549 227.818 108.073C231.155 111.597 232.061 111.593 232.061 111.593C232.061 111.593 230.95 120.282 230.747 121.899C230.544 123.516 228.726 135.843 228.726 135.843C228.726 135.843 228.626 141.704 229.636 142.613C229.861 143.707 230.478 144.681 231.371 145.351C232.265 146.022 233.373 146.342 234.486 146.251C235.209 146.241 243.785 136.758 240.551 134.535Z" fill="#FDC2CC"/>
<path d="M301.58 115.941V121.6L295.719 123.512L285.737 130.859L283.09 132.813L271.268 128.064L263.791 120.183C263.791 120.183 264.157 119.983 264.785 119.658L265.185 119.444C266.45 118.809 268.443 117.827 270.646 116.951C272.849 116.075 273.108 110.933 272.982 106.694V106.294C272.882 103.323 272.582 100.894 272.582 100.894C272.582 100.894 273.814 100.66 275.609 100.394C280.584 99.654 289.868 98.656 289.052 101.703C288.814 102.739 288.814 103.815 289.052 104.851C289.076 104.965 289.101 105.082 289.129 105.194C289.879 107.865 291.041 110.403 292.573 112.716L300.657 115.626L300.883 115.707L301.58 115.941Z" fill="#FDC2CC"/>
<path d="M301.58 117.662V115.944C302.215 115.835 302.865 115.835 303.5 115.944C304.207 116.144 305.549 118.264 306.156 118.47C306.763 118.676 310.473 132.513 310.064 133.728C309.655 134.943 305.84 162.315 305.84 162.315L298.14 170.803L296.625 147.463L301.577 133.621L301.58 117.662Z" fill="#FDC2CC"/>
<path d="M261.669 181.216C261.669 181.216 254.633 182.732 255.526 184.955C256.419 187.178 260.356 187.275 260.356 187.275L261.669 181.216Z" fill="#FDC2CC"/>
<path d="M271.47 136.334L266.115 147.873L259.749 152.521L258.638 145.339C258.638 145.339 256.488 140.59 255.562 139.785C255.518 139.74 255.464 139.704 255.405 139.68C254.597 139.38 246.917 144.227 244.695 145.136C242.473 146.045 234.495 146.247 234.495 146.247L238.036 133.617C238.036 133.617 245.109 130.99 246.018 129.778C248.595 126.866 251.399 124.163 254.404 121.694C257.233 119.472 262.395 120.28 262.395 120.28L262.476 120.313L263.802 120.887L267.641 130.287L271.47 136.334Z" fill="#FDC2CC"/>
<path d="M257.426 251.441C257.331 252.495 257.305 253.553 257.349 254.61C257.377 255.737 257.426 256.696 257.426 256.696L255.106 261.546C255.106 261.546 247.124 264.173 248.438 263.061C248.996 262.274 249.28 261.325 249.246 260.361C249.344 257.387 249.248 254.409 248.959 251.447C248.659 247.204 243.806 236.695 243.806 236.695C243.806 236.695 239.764 226.389 237.239 220.023C234.714 213.657 235.622 202.139 235.622 202.139C235.622 202.139 236.022 193.45 237.844 190.822C239.666 188.194 246.736 187.281 246.736 187.281L250.054 198.287C250.054 198.287 252.783 208.589 253.793 210.109C254.803 211.629 254.5 229.709 254.093 231.631C254.041 234.432 254.218 237.233 254.623 240.005C255.019 243.357 255.844 246.645 257.08 249.786C257.32 250.304 257.438 250.87 257.426 251.441Z" fill="#FDC2CC"/>
<path opacity="0.1" d="M257.422 256.695L255.102 261.545C255.102 261.545 247.12 264.172 248.434 263.06C248.992 262.273 249.276 261.324 249.242 260.36C249.529 260.073 249.837 259.76 250.152 259.434C252.183 257.328 254.644 255.684 257.366 254.612V254.612C257.377 255.736 257.422 256.695 257.422 256.695Z" fill="black"/>
<path d="M261.07 263.913C261.072 263.932 261.072 263.95 261.07 263.969C260.67 265.889 253.997 268.516 253.997 268.516C253.997 268.516 249.754 269.223 247.329 269.83C247.144 269.88 246.951 269.897 246.759 269.882C244.888 269.74 244.805 266.139 244.805 265.582C245.563 264.207 246.594 263.002 247.836 262.041C248.636 261.378 249.387 260.658 250.083 259.887C252.158 257.739 254.669 256.061 257.448 254.968V254.968C257.448 254.968 261.394 261.92 261.07 263.913Z" fill="white"/>
<path opacity="0.1" d="M261.07 263.913C261.072 263.932 261.072 263.95 261.07 263.969C260.67 265.889 253.997 268.516 253.997 268.516C253.997 268.516 249.754 269.223 247.329 269.83C247.143 269.88 246.95 269.897 246.759 269.882C248.959 268.374 254.288 264.753 255.008 264.676C255.728 264.599 259.272 263.577 261.07 263.913Z" fill="black"/>
<path opacity="0.1" d="M289.145 105.189C286.645 107.247 284.352 106.951 280.864 106.951C278.342 106.951 275.064 107.836 272.999 106.701C272.913 103.544 272.599 100.889 272.599 100.889C272.599 100.889 290.183 97.554 289.069 101.697C288.815 102.851 288.843 104.048 289.15 105.189H289.145Z" fill="black"/>
<path d="M294.404 93.629C294.404 97.4611 292.881 101.136 290.172 103.846C287.462 106.556 283.787 108.078 279.955 108.078C279.585 108.085 279.216 108.072 278.848 108.038V108.038C276.046 107.822 273.368 106.793 271.141 105.078C268.915 103.363 267.237 101.036 266.313 98.3824C265.389 95.7284 265.259 92.8625 265.939 90.1357C266.619 87.4089 268.079 84.9396 270.141 83.0302C272.203 81.1207 274.777 79.854 277.548 79.3852C280.319 78.9164 283.167 79.2658 285.742 80.3907C288.317 81.5155 290.509 83.3669 292.048 85.7182C293.587 88.0695 294.407 90.8187 294.408 93.629H294.404Z" fill="#FDC2CC"/>
<path opacity="0.1" d="M267.626 130.292L271.465 136.355L266.11 147.894L259.741 152.541L258.63 145.341C258.63 145.341 256.48 140.592 255.554 139.787C255.82 139.136 256.002 138.837 256.002 139.075C256.002 140.085 258.488 144.632 258.488 144.632C266.168 142.005 263.783 131.799 263.783 131.799C263.783 131.799 262.829 122.705 262.457 120.312L263.783 120.886L267.626 130.292Z" fill="black"/>
<path opacity="0.1" d="M301.58 115.944V121.599L295.719 123.511L285.737 130.858L283.09 132.812L271.268 128.063L263.791 120.182C263.791 120.182 264.157 119.982 264.785 119.657L265.185 119.443C271.653 122.098 278.611 123.349 285.599 123.112C300.824 120.687 301.277 117.007 300.899 115.704L301.58 115.944Z" fill="black"/>
<path d="M305.925 207.58C302.113 209.449 298.199 211.102 294.202 212.532C287.231 215.058 271.872 211.724 269.952 211.218C268.032 210.712 253.28 204.852 247.622 202.63C241.964 200.408 240.549 202.23 239.235 202.019C237.921 201.808 237.013 199.291 236.81 198.584C236.607 197.877 240.448 191.713 242.57 188.584C244.692 185.455 251.058 186.058 251.97 185.856C252.882 185.654 259.245 185.856 259.245 185.856C259.245 185.856 258.845 183.835 261.165 178.176C263.485 172.517 257.326 162.01 257.326 162.01C253.083 159.282 253.785 150.794 253.785 150.794C252.775 147.055 256.007 138.461 256.007 139.477C256.007 140.493 258.493 145.034 258.493 145.034C266.173 142.407 263.788 132.201 263.788 132.201C263.788 132.201 262.677 121.592 262.381 120.278C262.085 118.964 263.788 119.167 263.788 119.167C264.114 119.337 264.445 119.5 264.782 119.655C271.362 122.441 278.471 123.759 285.613 123.515C304.071 120.537 300.801 115.788 300.68 115.615L301.58 115.934C308.248 120.784 306.228 136.849 306.228 136.849L303.728 148.84L301.873 157.772C301.873 157.772 308.44 197.58 309.047 199.603C309.654 201.626 305.925 207.58 305.925 207.58Z" fill="#BE7575"/>
<path opacity="0.1" d="M256.719 189.393C256.319 189.693 251.767 199.093 255.102 201.72C258.437 204.347 256.719 189.393 256.719 189.393Z" fill="black"/>
<path opacity="0.1" d="M259.951 190.715C260.051 191.015 269.451 205.973 274.604 207.185L259.951 190.715Z" fill="black"/>
<path opacity="0.1" d="M282.587 72.382L281.087 72.701C281.501 72.5481 281.925 72.4225 282.356 72.325L282.587 72.382Z" fill="black"/>
<path opacity="0.1" d="M305.229 136.851L302.4 148.835C300.957 148.175 299.632 147.285 298.475 146.199C297.65 145.254 296.681 144.444 295.605 143.799C294.008 143.234 292.312 143 290.622 143.112C288.508 143.033 286.414 142.674 284.394 142.045C283.807 141.898 283.256 141.631 282.777 141.261C282.386 140.793 282.11 140.24 281.969 139.647C281.829 139.054 281.829 138.436 281.969 137.842C282.145 135.517 282.165 133.182 282.03 130.854C282.006 130.418 281.974 129.981 281.937 129.545C281.776 127.591 281.25 125.33 279.251 124.493C278.224 124.093 276.999 124.127 276.017 123.638C275.876 123.567 275.743 123.483 275.617 123.388C274.161 122.37 274.03 120.328 274.086 118.611C274.172 116.25 274.253 113.89 274.33 111.529C274.404 110.362 274.378 109.191 274.253 108.029V108.029C274.156 107.258 273.943 106.506 273.623 105.798C272.746 103.922 270.923 102.358 270.592 100.379C270.574 100.287 270.561 100.194 270.555 100.101C270.385 98.3301 271.5 96.6821 271.898 94.9391C272.682 91.4391 270.047 87.5951 266.171 86.5891C264.958 86.2741 263.657 86.2131 262.449 85.8561C262.256 85.7991 262.065 85.7323 261.879 85.6561C263.498 83.5981 265.572 81.943 267.938 80.8202C270.303 79.6974 272.897 79.1374 275.515 79.1841C284.54 79.1841 291.859 85.6561 291.859 93.6331C291.822 95.8491 291.254 98.0239 290.204 99.9754C289.153 101.927 287.65 103.598 285.821 104.849C285.845 104.963 285.874 105.08 285.906 105.192C286.776 107.9 288.094 110.443 289.806 112.714L298.956 115.624L299.974 115.948C307.511 120.794 305.229 136.851 305.229 136.851Z" fill="black"/>
<path opacity="0.1" d="M310.198 148.459C310.111 148.455 310.024 148.443 309.939 148.422C310.027 148.413 310.116 148.425 310.198 148.459V148.459Z" fill="black"/>
<path d="M278.946 71.9811C276.417 71.394 273.831 71.0922 271.235 71.0811C270.394 71.0076 269.55 71.1847 268.81 71.5901C267.916 72.2161 267.804 73.3481 267.536 74.3261C267.054 75.9595 266.036 77.3832 264.646 78.3681C263.689 79.0681 262.56 79.5811 261.646 80.3221C261.175 80.6352 260.797 81.0702 260.553 81.5808C260.309 82.0914 260.208 82.6586 260.26 83.2221C260.475 83.7905 260.832 84.2949 261.295 84.6879C261.759 85.081 262.315 85.3497 262.911 85.4691C264.124 85.8121 265.411 85.8691 266.633 86.2021C270.509 87.2081 273.14 91.0521 272.356 94.5481C271.956 96.2911 270.848 97.9391 271.013 99.7101C271.213 101.824 273.163 103.453 274.081 105.41C274.769 107.234 275.014 109.196 274.796 111.133L274.552 118.222C274.487 120.089 274.652 122.336 276.492 123.249C277.479 123.737 278.707 123.681 279.726 124.11C281.726 124.943 282.248 127.21 282.412 129.158C282.643 131.919 282.654 134.695 282.444 137.458C282.301 138.051 282.3 138.67 282.44 139.264C282.581 139.858 282.859 140.41 283.252 140.877C283.73 141.248 284.281 141.516 284.869 141.661C286.889 142.29 288.983 142.649 291.097 142.728C292.787 142.62 294.482 142.854 296.08 143.416C297.156 144.062 298.124 144.872 298.95 145.816C301.534 148.18 304.828 149.621 308.318 149.916C308.682 149.988 309.057 149.987 309.42 149.913C309.784 149.839 310.129 149.693 310.435 149.484C310.956 149.003 310.649 147.965 309.905 148.025C310.536 148.131 311.184 148.066 311.782 147.837C312.38 147.609 312.905 147.225 313.305 146.725C313.645 146.242 313.827 145.666 313.827 145.075C313.827 144.485 313.645 143.908 313.305 143.425C312.46 142.212 310.666 141.404 310.568 139.966C310.644 139.141 310.959 138.356 311.473 137.707C312.487 135.916 312.893 133.845 312.629 131.804C312.364 129.763 311.444 127.863 310.007 126.39C308.107 124.43 305.27 122.943 304.607 120.429C304.166 118.748 304.833 116.982 304.579 115.272C304.179 112.443 301.374 110.422 299.834 107.9C298.408 105.331 297.907 102.351 298.415 99.4571C298.942 96.5914 299.678 93.768 300.615 91.0091C301.388 88.9801 301.537 86.7665 301.044 84.6521C300.458 83.1758 299.576 81.835 298.453 80.7121C295.911 77.6893 292.781 75.2143 289.253 73.4371C285.524 71.5953 281.244 71.2005 277.241 72.3291" fill="#474157"/>
<path opacity="0.1" d="M278.946 71.9811C276.417 71.394 273.831 71.0922 271.235 71.0811C270.394 71.0076 269.55 71.1847 268.81 71.5901C267.916 72.2161 267.804 73.3481 267.536 74.3261C267.054 75.9595 266.036 77.3832 264.646 78.3681C263.689 79.0681 262.56 79.5811 261.646 80.3221C261.175 80.6352 260.797 81.0702 260.553 81.5808C260.309 82.0914 260.208 82.6586 260.26 83.2221C260.475 83.7905 260.832 84.2949 261.295 84.6879C261.759 85.081 262.315 85.3497 262.911 85.4691C264.124 85.8121 265.411 85.8691 266.633 86.2021C270.509 87.2081 273.14 91.0521 272.356 94.5481C271.956 96.2911 270.848 97.9391 271.013 99.7101C271.213 101.824 273.163 103.453 274.081 105.41C274.769 107.234 275.014 109.196 274.796 111.133L274.552 118.222C274.487 120.089 274.652 122.336 276.492 123.249C277.479 123.737 278.707 123.681 279.726 124.11C281.726 124.943 282.248 127.21 282.412 129.158C282.643 131.919 282.654 134.695 282.444 137.458C282.301 138.051 282.3 138.67 282.44 139.264C282.581 139.858 282.859 140.41 283.252 140.877C283.73 141.248 284.281 141.516 284.869 141.661C286.889 142.29 288.983 142.649 291.097 142.728C292.787 142.62 294.482 142.854 296.08 143.416C297.156 144.062 298.124 144.872 298.95 145.816C301.534 148.18 304.828 149.621 308.318 149.916C308.682 149.988 309.057 149.987 309.42 149.913C309.784 149.839 310.129 149.693 310.435 149.484C310.956 149.003 310.649 147.965 309.905 148.025C310.536 148.131 311.184 148.066 311.782 147.837C312.38 147.609 312.905 147.225 313.305 146.725C313.645 146.242 313.827 145.666 313.827 145.075C313.827 144.485 313.645 143.908 313.305 143.425C312.46 142.212 310.666 141.404 310.568 139.966C310.644 139.141 310.959 138.356 311.473 137.707C312.487 135.916 312.893 133.845 312.629 131.804C312.364 129.763 311.444 127.863 310.007 126.39C308.107 124.43 305.27 122.943 304.607 120.429C304.166 118.748 304.833 116.982 304.579 115.272C304.179 112.443 301.374 110.422 299.834 107.9C298.408 105.331 297.907 102.351 298.415 99.4571C298.942 96.5914 299.678 93.768 300.615 91.0091C301.388 88.9801 301.537 86.7665 301.044 84.6521C300.458 83.1758 299.576 81.835 298.453 80.7121C295.911 77.6893 292.781 75.2143 289.253 73.4371C285.524 71.5953 281.244 71.2005 277.241 72.3291" fill="black"/>
<path opacity="0.1" d="M257.324 162.018C257.324 162.018 260.759 163.332 264.397 159.698C268.035 156.064 257.324 162.018 257.324 162.018Z" fill="black"/>
<g opacity="0.1">
<path d="M280.464 71.9179C281.131 71.7853 281.806 71.7 282.485 71.6629C281.542 71.6053 280.594 71.6351 279.656 71.7519L280.464 71.9179Z" fill="black"/>
<path d="M300.732 145.809C299.905 144.865 298.936 144.055 297.859 143.409C296.261 142.847 294.567 142.613 292.876 142.722C290.762 142.644 288.668 142.285 286.648 141.655C286.06 141.51 285.51 141.242 285.031 140.871C284.641 140.403 284.365 139.85 284.225 139.257C284.085 138.663 284.084 138.046 284.223 137.452C284.433 134.689 284.422 131.913 284.191 129.152C284.025 127.198 283.504 124.937 281.505 124.104C280.483 123.675 279.258 123.728 278.271 123.249C276.428 122.336 276.25 120.089 276.327 118.222L276.571 111.14C276.791 109.201 276.545 107.238 275.855 105.413C274.938 103.453 272.985 101.828 272.788 99.713C272.622 97.947 273.738 96.294 274.131 94.551C274.915 91.051 272.28 87.211 268.404 86.205C267.191 85.89 265.89 85.825 264.682 85.472C264.091 85.3556 263.539 85.0905 263.079 84.7017C262.619 84.3129 262.265 83.8133 262.051 83.25C261.991 82.6852 262.088 82.1148 262.332 81.6019C262.576 81.089 262.957 80.6536 263.433 80.344C264.35 79.604 265.478 79.095 266.441 78.39C267.83 77.4058 268.847 75.9817 269.326 74.348C269.426 73.3173 269.876 72.3517 270.6 71.612C271.098 71.302 271.671 71.1334 272.257 71.124C271.897 71.124 271.538 71.103 271.182 71.103C270.342 71.0301 269.498 71.2061 268.757 71.609C267.863 72.239 267.751 73.367 267.483 74.345C267.001 75.9784 265.983 77.4021 264.593 78.387C263.636 79.087 262.507 79.6 261.593 80.341C261.121 80.6548 260.743 81.0908 260.499 81.6025C260.255 82.1142 260.154 82.6825 260.207 83.247C260.423 83.8099 260.778 84.3089 261.238 84.6975C261.699 85.086 262.251 85.3515 262.842 85.469C264.051 85.829 265.342 85.869 266.564 86.202C270.44 87.208 273.071 91.052 272.287 94.548C271.887 96.29 270.779 97.943 270.944 99.71C271.144 101.827 273.094 103.453 274.011 105.41C274.701 107.235 274.947 109.198 274.727 111.137C274.646 113.498 274.565 115.858 274.483 118.219C274.418 120.086 274.583 122.333 276.423 123.246C277.41 123.734 278.638 123.678 279.657 124.101C281.657 124.934 282.179 127.201 282.343 129.149C282.574 131.91 282.585 134.686 282.375 137.449C282.232 138.042 282.231 138.661 282.371 139.255C282.512 139.849 282.79 140.401 283.183 140.868C283.662 141.239 284.212 141.507 284.8 141.652C286.819 142.283 288.913 142.642 291.027 142.719C292.718 142.611 294.412 142.845 296.01 143.407C297.088 144.053 298.059 144.863 298.888 145.807C301.471 148.171 304.764 149.613 308.253 149.907C308.705 149.961 309.161 149.943 309.607 149.854C306.296 149.473 303.19 148.056 300.733 145.804L300.732 145.809Z" fill="black"/>
</g>
<path opacity="0.1" d="M238.024 133.618C238.024 133.618 234.791 136.584 235.263 137.797C235.735 139.01 238.024 133.618 238.024 133.618Z" fill="black"/>
<path d="M241.025 171.751C238.693 171.181 232.262 170.651 229.204 180.918C228.491 183.302 227.584 185.623 226.492 187.858C223.561 193.884 219.766 206.276 236.439 209.004L276.451 218.098C276.451 218.098 297.872 220.725 299.286 219.715C299.721 219.304 300.056 218.798 300.266 218.237C300.475 217.676 300.553 217.074 300.493 216.478C300.493 216.478 276.849 216.478 272.201 209.203C267.553 201.928 267.351 192.026 267.351 192.026C267.351 192.026 267.933 176.737 243.505 172.294C242.702 172.143 241.853 171.953 241.025 171.751Z" fill="#474157"/>
<path opacity="0.1" d="M241.025 171.823C238.693 171.253 232.262 170.723 229.204 180.993C228.491 183.377 227.584 185.698 226.492 187.933C223.561 193.956 219.766 206.347 236.439 209.075L276.451 218.169C276.451 218.169 297.872 220.796 299.286 219.786C299.722 219.376 300.058 218.871 300.268 218.31C300.478 217.749 300.557 217.148 300.499 216.552C300.499 216.552 276.855 216.552 272.207 209.277C267.559 202.002 267.359 192.094 267.359 192.094C267.359 192.094 267.941 176.805 243.513 172.362C242.702 172.212 241.853 172.014 241.025 171.823Z" fill="black"/>
<path d="M324.901 161.296C324.669 159.817 323.908 158.472 322.759 157.512C321.611 156.552 320.153 156.041 318.656 156.075C312.901 156.175 295.186 156.948 286.956 162.323C286.956 162.323 280.692 166.365 278.872 166.365C277.052 166.365 252.398 187.381 288.972 206.173C288.972 206.173 308.572 211.751 316.253 198.656C316.253 198.656 321.709 184.591 321.305 179.72C320.901 174.849 324.946 161.72 324.946 161.72C324.946 161.72 324.941 161.558 324.901 161.296Z" fill="#474157"/>
<path opacity="0.1" d="M324.901 164.837C324.607 163.42 323.816 162.155 322.671 161.271C321.525 160.386 320.101 159.941 318.656 160.015C312.901 160.115 295.186 160.823 286.956 165.782C286.956 165.782 280.692 169.512 278.872 169.512C277.052 169.512 252.398 188.912 288.972 206.267C288.972 206.267 308.572 211.416 316.253 199.327C316.253 199.327 321.709 186.341 321.305 181.847C320.901 177.353 324.946 165.224 324.946 165.224C324.946 165.224 324.941 165.08 324.901 164.837Z" fill="black"/>
<path d="M305.348 206.17H298.881V219.94H305.348V206.17Z" fill="#5F5D7E"/>
<path opacity="0.1" d="M68.8051 150.179C78.8589 150.179 87.0091 149.656 87.0091 149.01C87.0091 148.364 78.8589 147.841 68.8051 147.841C58.7513 147.841 50.6011 148.364 50.6011 149.01C50.6011 149.656 58.7513 150.179 68.8051 150.179Z" fill="black"/>
<path d="M84.0808 103.961C83.6929 104.492 83.3825 105.076 83.1589 105.695C83.1029 105.849 83.0449 106.019 82.9889 106.183C82.8867 106.135 82.7793 106.098 82.6689 106.074C82.1974 105.957 81.7103 105.916 81.2259 105.952C81.2259 105.766 81.2499 105.552 81.2539 105.362C81.3149 103.232 81.0639 100.262 79.0319 101.518C77.0779 102.731 78.4738 104.751 79.7318 106.048L80.0559 106.363C78.9079 107.171 78.6899 109.084 78.4999 111.063C78.3099 113.042 76.6239 115.222 75.4999 116.454C75.3859 116.576 75.2859 116.698 75.1849 116.797C74.7328 116.435 74.2091 116.173 73.6482 116.029C73.0874 115.885 72.5024 115.862 71.9319 115.961C71.8879 115.788 71.8319 115.606 71.7829 115.411C70.8829 112.146 68.9989 106.484 66.6019 105.242L66.9169 104.842C67.9349 103.509 69.0829 101.532 67.3899 101.022C65.6969 100.512 65.5419 102.74 65.6359 104.404C65.6359 104.614 65.6679 104.804 65.6849 104.994C65.3464 105.01 65.0148 105.095 64.7103 105.244C64.4058 105.393 64.1348 105.602 63.9139 105.859L63.6509 105.551C62.2769 103.934 59.7589 101.36 58.9949 103.304C58.2829 105.115 60.5029 107.463 62.0619 108.825L62.1619 108.911C61.1159 113.167 65.6739 116.643 68.1449 118.146L68.4639 118.34C65.0689 122.34 62.9689 129.84 62.9689 129.84L72.4749 131.54C72.4749 131.54 78.7749 126.104 77.9699 120.996H78.0349C84.3349 119.735 85.7669 113.017 84.7839 109.029L84.8979 108.985C86.045 108.514 87.0504 107.754 87.8159 106.778C89.5839 104.32 85.8848 101.556 84.0808 103.961Z" fill="#2B4CA5"/>
<path d="M65.1591 106.701L64.0591 109.954C64.0591 109.954 63.4411 109.518 62.6591 108.831C61.0981 107.469 58.8801 105.121 59.5921 103.31C60.3561 101.366 62.8741 103.933 64.2481 105.557C64.7921 106.201 65.1591 106.701 65.1591 106.701Z" fill="white"/>
<path d="M67.5021 104.846C67.164 105.29 66.8025 105.715 66.4191 106.12C66.3237 105.554 66.257 104.983 66.2191 104.41C66.1261 102.744 66.3031 100.534 67.9721 101.028C69.6411 101.522 68.5021 103.511 67.5021 104.846Z" fill="white"/>
<path d="M81.847 105.359C81.815 106.43 81.709 107.283 81.709 107.283C81.2196 106.902 80.7566 106.489 80.323 106.046C79.066 104.741 77.676 102.728 79.623 101.516C81.647 100.259 81.9 103.228 81.847 105.359Z" fill="white"/>
<path d="M88.4079 106.761C87.638 107.736 86.628 108.494 85.4769 108.961C85.159 109.099 84.8327 109.217 84.4999 109.313L83.1909 107.474C83.3297 106.867 83.5108 106.27 83.7329 105.688C83.9566 105.069 84.267 104.485 84.6549 103.954C84.8377 103.703 85.0685 103.491 85.3339 103.33C85.5993 103.169 85.8941 103.063 86.201 103.017C86.508 102.971 86.821 102.986 87.122 103.062C87.423 103.138 87.7059 103.272 87.9543 103.458C88.2028 103.645 88.4118 103.878 88.5693 104.146C88.7267 104.413 88.8295 104.709 88.8716 105.017C88.9137 105.324 88.8943 105.637 88.8145 105.937C88.7347 106.237 88.5962 106.518 88.4069 106.764L88.4079 106.761Z" fill="white"/>
<path opacity="0.1" d="M64.2382 105.557C64.7912 106.199 65.1602 106.701 65.1602 106.701L64.0602 109.954C64.0602 109.954 63.4422 109.518 62.6602 108.831C62.8344 107.789 63.2649 106.808 63.9131 105.974C64.0116 105.828 64.1202 105.688 64.2382 105.557Z" fill="black"/>
<path opacity="0.1" d="M67.5052 104.846C67.167 105.29 66.8055 105.715 66.4222 106.12C66.3268 105.554 66.26 104.983 66.2222 104.41C66.6843 104.418 67.1324 104.57 67.5032 104.846H67.5052Z" fill="black"/>
<path d="M72.9479 117.761L70.1829 118.974C69.681 118.721 69.192 118.443 68.7179 118.141C65.8119 116.351 59.9719 111.852 63.8889 106.549C67.8059 101.246 71.0709 110.761 72.3559 115.408C72.7619 116.804 72.9479 117.761 72.9479 117.761Z" fill="white"/>
<path opacity="0.1" d="M80.3159 106.047C80.717 105.631 81.2626 105.385 81.8399 105.36C81.8079 106.431 81.7019 107.283 81.7019 107.283C81.2126 106.903 80.7496 106.49 80.3159 106.047V106.047Z" fill="black"/>
<path opacity="0.1" d="M85.4808 108.964C85.163 109.102 84.8366 109.22 84.5038 109.316L83.1948 107.477C83.3336 106.87 83.5147 106.273 83.7368 105.691C84.2354 106.089 84.6474 106.585 84.9473 107.148C85.2472 107.711 85.4288 108.329 85.4808 108.965V108.964Z" fill="black"/>
<path d="M78.6109 120.981L78.1459 121.062C68.8789 122.472 75.0929 117.473 75.0929 117.473C75.0929 117.473 75.4929 117.09 76.0699 116.458C77.1899 115.226 78.8699 113.063 79.0699 111.067C79.3609 108.067 79.6959 105.247 83.2409 106.075C86.7339 106.887 87.4049 119.222 78.6109 120.981Z" fill="white"/>
<path d="M78.4521 144.05H60.7461V148.706H78.4521V144.05Z" fill="#474157"/>
<path d="M81.0681 128.918H57.9331V145.166H81.0681V128.918Z" fill="#474157"/>
<path opacity="0.1" d="M78.2822 144.05H60.5762V148.706H78.2822V144.05Z" fill="black"/>
<path opacity="0.1" d="M80.9958 128.921H57.8608V145.169H80.9958V128.921Z" fill="black"/>
<path d="M79.6162 144.05H61.9102V148.706H79.6162V144.05Z" fill="#474157"/>
<path opacity="0.1" d="M72.3732 115.431C72.7732 116.822 72.9731 117.779 72.9731 117.779L70.2082 118.992C69.7062 118.739 69.2173 118.461 68.7432 118.159C69.6126 116.868 70.8912 115.907 72.3732 115.431Z" fill="black"/>
<path opacity="0.1" d="M78.6109 120.981L78.1459 121.062C68.8789 122.472 75.0929 117.473 75.0929 117.473C75.0929 117.473 75.4929 117.09 76.0699 116.458C76.7996 116.979 77.4055 117.655 77.8446 118.436C78.2838 119.218 78.5454 120.087 78.6109 120.981V120.981Z" fill="black"/>
<path d="M63.5601 129.839C63.5601 129.839 68.7501 111.248 76.0291 116.987C83.3081 122.726 73.067 131.536 73.067 131.536L63.5601 129.839Z" fill="white"/>
<path opacity="0.1" d="M66.1782 110.047C66.4996 110.047 66.7602 109.786 66.7602 109.465C66.7602 109.144 66.4996 108.883 66.1782 108.883C65.8568 108.883 65.5962 109.144 65.5962 109.465C65.5962 109.786 65.8568 110.047 66.1782 110.047Z" fill="black"/>
<path opacity="0.1" d="M66.1299 112.768C66.4513 112.768 66.7119 112.507 66.7119 112.186C66.7119 111.865 66.4513 111.604 66.1299 111.604C65.8084 111.604 65.5479 111.865 65.5479 112.186C65.5479 112.507 65.8084 112.768 66.1299 112.768Z" fill="black"/>
<path opacity="0.1" d="M83.0112 110.581C83.3326 110.581 83.5932 110.32 83.5932 109.999C83.5932 109.678 83.3326 109.417 83.0112 109.417C82.6898 109.417 82.4292 109.678 82.4292 109.999C82.4292 110.32 82.6898 110.581 83.0112 110.581Z" fill="black"/>
<path opacity="0.1" d="M69.4282 124.504C69.7496 124.504 70.0102 124.244 70.0102 123.922C70.0102 123.601 69.7496 123.34 69.4282 123.34C69.1068 123.34 68.8462 123.601 68.8462 123.922C68.8462 124.244 69.1068 124.504 69.4282 124.504Z" fill="black"/>
<path opacity="0.1" d="M81.7988 115.095C82.1202 115.095 82.3808 114.834 82.3808 114.513C82.3808 114.192 82.1202 113.931 81.7988 113.931C81.4774 113.931 81.2168 114.192 81.2168 114.513C81.2168 114.834 81.4774 115.095 81.7988 115.095Z" fill="black"/>
<path opacity="0.1" d="M75.7851 121.109C76.1066 121.109 76.3671 120.848 76.3671 120.527C76.3671 120.206 76.1066 119.945 75.7851 119.945C75.4637 119.945 75.2031 120.206 75.2031 120.527C75.2031 120.848 75.4637 121.109 75.7851 121.109Z" fill="black"/>
<path opacity="0.1" d="M68.166 111.211C68.4874 111.211 68.748 110.95 68.748 110.629C68.748 110.308 68.4874 110.047 68.166 110.047C67.8446 110.047 67.584 110.308 67.584 110.629C67.584 110.95 67.8446 111.211 68.166 111.211Z" fill="black"/>
<path opacity="0.1" d="M81.4121 112.331C81.7335 112.331 81.9941 112.07 81.9941 111.749C81.9941 111.428 81.7335 111.167 81.4121 111.167C81.0906 111.167 80.8301 111.428 80.8301 111.749C80.8301 112.07 81.0906 112.331 81.4121 112.331Z" fill="black"/>
<path opacity="0.1" d="M79.4218 116.841C79.7433 116.841 80.0038 116.58 80.0038 116.259C80.0038 115.938 79.7433 115.677 79.4218 115.677C79.1004 115.677 78.8398 115.938 78.8398 116.259C78.8398 116.58 79.1004 116.841 79.4218 116.841Z" fill="black"/>
<path opacity="0.1" d="M73.3071 124.068C73.6285 124.068 73.8891 123.807 73.8891 123.486C73.8891 123.165 73.6285 122.904 73.3071 122.904C72.9857 122.904 72.7251 123.165 72.7251 123.486C72.7251 123.807 72.9857 124.068 73.3071 124.068Z" fill="black"/>
<path opacity="0.1" d="M72.0468 121.207C72.3683 121.207 72.6288 120.946 72.6288 120.625C72.6288 120.304 72.3683 120.043 72.0468 120.043C71.7254 120.043 71.4648 120.304 71.4648 120.625C71.4648 120.946 71.7254 121.207 72.0468 121.207Z" fill="black"/>
<path opacity="0.1" d="M69.039 114.756C69.3605 114.756 69.621 114.495 69.621 114.174C69.621 113.853 69.3605 113.592 69.039 113.592C68.7176 113.592 68.457 113.853 68.457 114.174C68.457 114.495 68.7176 114.756 69.039 114.756Z" fill="black"/>
<path opacity="0.1" d="M79.6162 144.05H61.9102V145.751H79.6162V144.05Z" fill="black"/>
<path d="M82.2331 128.918H59.0981V145.166H82.2331V128.918Z" fill="#474157"/>
<path opacity="0.1" d="M74.084 126.687C74.4054 126.687 74.666 126.427 74.666 126.105C74.666 125.784 74.4054 125.523 74.084 125.523C73.7625 125.523 73.502 125.784 73.502 126.105C73.502 126.427 73.7625 126.687 74.084 126.687Z" fill="black"/>
<path opacity="0.1" d="M70.5908 127.415C70.9122 127.415 71.1728 127.154 71.1728 126.833C71.1728 126.512 70.9122 126.251 70.5908 126.251C70.2694 126.251 70.0088 126.512 70.0088 126.833C70.0088 127.154 70.2694 127.415 70.5908 127.415Z" fill="black"/>
<path d="M126.057 191.01C126.057 191.01 128.939 194.781 124.727 200.471C120.515 206.161 117.047 210.98 118.438 214.52C118.438 214.52 124.8 203.946 129.977 203.801C135.154 203.656 131.751 197.372 126.057 191.01Z" fill="white"/>
<path opacity="0.1" d="M126.055 191.01C126.307 191.374 126.506 191.771 126.645 192.191C131.693 198.124 134.384 203.661 129.53 203.802C125.012 203.944 119.583 212.027 118.282 214.047C118.326 214.205 118.382 214.362 118.436 214.512C118.436 214.512 124.798 203.938 129.975 203.793C135.152 203.648 131.749 197.372 126.055 191.01Z" fill="black"/>
<path d="M131.415 195.819C131.415 197.145 131.266 198.219 131.084 198.219C130.902 198.219 130.753 197.144 130.753 195.819C130.753 194.494 130.939 195.119 131.119 195.119C131.299 195.119 131.415 194.486 131.415 195.819Z" fill="#FFD037"/>
<path d="M133.254 197.403C132.09 198.038 131.076 198.421 130.986 198.258C130.896 198.095 131.77 197.45 132.94 196.815C134.11 196.18 133.64 196.642 133.748 196.815C133.856 196.988 134.421 196.77 133.254 197.403Z" fill="#FFD037"/>
<path d="M110.822 191.01C110.822 191.01 107.94 194.781 112.152 200.471C116.364 206.161 119.832 210.98 118.437 214.52C118.437 214.52 112.08 203.946 106.902 203.801C101.724 203.656 105.127 197.372 110.822 191.01Z" fill="white"/>
<path opacity="0.1" d="M110.822 191.01C110.57 191.374 110.371 191.771 110.232 192.191C105.184 198.124 102.493 203.661 107.347 203.802C111.865 203.944 117.294 212.027 118.595 214.047C118.551 214.205 118.498 214.36 118.437 214.512C118.437 214.512 112.08 203.943 106.902 203.805C101.724 203.667 105.127 197.372 110.822 191.01Z" fill="black"/>
<path d="M105.463 195.819C105.463 197.145 105.612 198.219 105.794 198.219C105.976 198.219 106.125 197.144 106.125 195.819C106.125 194.494 105.939 195.119 105.759 195.119C105.579 195.119 105.463 194.486 105.463 195.819Z" fill="#FFD037"/>
<path d="M103.624 197.403C104.788 198.038 105.802 198.421 105.892 198.258C105.982 198.095 105.108 197.45 103.938 196.815C102.768 196.18 103.238 196.642 103.13 196.815C103.022 196.988 102.456 196.77 103.624 197.403Z" fill="#FFD037"/>
<path opacity="0.1" d="M118.436 243.374C135.088 243.374 148.586 241.302 148.586 238.746C148.586 236.19 135.088 234.118 118.436 234.118C101.785 234.118 88.2861 236.19 88.2861 238.746C88.2861 241.302 101.785 243.374 118.436 243.374Z" fill="#6C63FF"/>
<path d="M133.957 209.443L133.812 210.619L133.612 212.285L133.531 212.976L133.325 214.642L133.24 215.337L133.04 216.998L130.753 235.913C130.547 237.602 127.787 238.913 124.461 238.913H112.444C109.114 238.913 106.381 237.599 106.155 235.913L103.843 216.998L103.643 215.337L103.559 214.642L103.353 212.976L103.272 212.285L103.072 210.619L102.927 209.443C102.805 208.489 104.301 207.681 106.189 207.681H130.705C132.581 207.681 134.075 208.489 133.957 209.443Z" fill="#65617D"/>
<path d="M133.811 210.619L133.611 212.28H103.268L103.068 210.619H133.811Z" fill="#9D9CB5"/>
<path d="M133.528 212.976L133.328 214.642H103.558L103.352 212.976H133.528Z" fill="#9D9CB5"/>
<path d="M133.237 215.333L133.037 216.999H103.848L103.648 215.333H133.237Z" fill="#9D9CB5"/>
<defs>
<linearGradient id="paint0_linear_373_629" x1="274.117" y1="279.663" x2="274.117" y2="71.0583" gradientUnits="userSpaceOnUse">
<stop stop-color="#808080" stop-opacity="0.251"/>
<stop offset="0.54" stop-color="#808080" stop-opacity="0.122"/>
<stop offset="1" stop-color="#808080" stop-opacity="0.102"/>
</linearGradient>
</defs>
</svg>
